<svg xmlns="http://www.w3.org/2000/svg" viewBox="0 0 209 51"><defs><style>.cls-1,.cls-2{fill:#f5f6f8;}.cls-2{font-size:10.94px;font-family:DolceVitaLight, Dolce Vita Light;letter-spacing:0.3em;}.cls-3{letter-spacing:0.17em;}</style></defs><title>Asset 4</title><g id="Layer_2" data-name="Layer 2"><g id="Layer_1-2" data-name="Layer 1"><path class="cls-1" d="M55.71,28a6.29,6.29,0,0,1-8.77-2.26l-.18-.3h0a10.9,10.9,0,0,0-14.57-2.86l.17.31a6.28,6.28,0,0,1,8.77,2.25l.18.3h0a10.89,10.89,0,0,0,14.56,2.86Z"/><ellipse class="cls-1" cx="38.98" cy="14.95" rx="1.73" ry="1.79"/><path class="cls-1" d="M28.88,30.12H17.33v-.45H20L17.2,21.58H7.47L4.63,29.67h4v.45H0v-.45H4.2L14.57.19h.89L25.82,29.67h3.06Zm-11.81-9-2.21-6.25a4.27,4.27,0,0,0-4-2.86L7.64,21.14Z"/><path class="cls-1" d="M80.35.63H76.23v19a10.11,10.11,0,1,1-20.21,0V.63H53.13V.19H64.68V.63H61.8V25.19a4.42,4.42,0,0,0,4.33,4.48,9.85,9.85,0,0,0,9.68-10V.63H71.69V.19h8.66Z"/><path class="cls-1" d="M101.93,30.12H90.38v-.45H93.1l-2.85-8.09H80.53l-2.85,8.09h4v.45H73.05v-.45h4.2L87.62.19h.89L98.87,29.67h3.06Zm-11.81-9-2.2-6.25a4.29,4.29,0,0,0-4-2.86L80.7,21.14Z"/><path class="cls-1" d="M127.88,30.12H116.33v-.45H119l-5.22-9,0-.05a4.36,4.36,0,0,0-3.19-1.32V29.67h2.89v.45H101.89v-.45h2.89V.63h-2.89V.19h14.44a8.8,8.8,0,0,1,8.66,9,8.85,8.85,0,0,1-7,8.8l6.8,11.7h3.1ZM110.55.63V17.7h5.78a2.91,2.91,0,0,0,2.89-3V3.62a3,3,0,0,0-2.89-3Z"/><path class="cls-1" d="M159.22,9.17a8.83,8.83,0,0,1-8.66,9h-5.77V29.67h2.88v.45H136.08v-.45H139V.63h-2.89V.19h14.48A8.83,8.83,0,0,1,159.22,9.17Zm-5.77-5.55a3,3,0,0,0-2.89-3h-5.77V17.7h5.77a2.94,2.94,0,0,0,2.89-3Z"/><path class="cls-1" d="M180.21,30.12H168.65v-.45h2.72l-2.84-8.09H158.8L156,29.67h4v.45h-8.66v-.45h4.2L165.89.19h.9l10.36,29.48h3.06Zm-11.81-9-2.21-6.25a4.27,4.27,0,0,0-4-2.86L159,21.14Z"/><path class="cls-1" d="M209,.19V.63h-4.25L194.43,30.12h-.93L188.19,15l-5.35,15.14H182L171.59.63h-3.06V.19h11.59V.63h-2.76l5.18,14.79a4.37,4.37,0,0,0,4,2.86L192.78.63h-4V.19h8.66V.63H193.2l-2.12,6.12,3,8.67a4.37,4.37,0,0,0,4,2.86L204.33.63h-4V.19H209Z"/><path class="cls-1" d="M39,29.47a8.84,8.84,0,0,1-8.67-9v0h0s0,0,0,0V15h0V9.42a8.67,8.67,0,1,1,17.33,0V15h0v5.5h0v0a9.22,9.22,0,0,1-.87,3.87l.31.35h.06l.2.34.18.3a5.62,5.62,0,0,0,.78,1A15.14,15.14,0,0,0,53.41,15h0A14.69,14.69,0,0,0,39,0C31,0,24.59,6.68,24.58,15h0c0,8.27,6.46,15,14.4,15a13.9,13.9,0,0,0,5.16-1c-.32-.19-.62-.41-.92-.63A8.32,8.32,0,0,1,39,29.47Z"/><ellipse class="cls-1" cx="149.12" cy="9.17" rx="1.73" ry="1.79"/><text class="cls-2" transform="translate(83.35 48.84) scale(0.97 1)">H<tspan class="cls-3" x="9.36" y="0">O</tspan><tspan x="19.37" y="0">TEL</tspan></text></g></g></svg>