<svg xmlns="http://www.w3.org/2000/svg" viewBox="0 0 328 77"><defs><style>.cls-1,.cls-2{fill:#3660e6;}.cls-2{font-size:16.51px;font-family:DolceVitaLight, Dolce Vita Light;letter-spacing:0.3em;}.cls-3{letter-spacing:0.17em;}</style></defs><title>Asset 6</title><g id="Layer_2" data-name="Layer 2"><g id="Layer_1-2" data-name="Layer 1"><path class="cls-1" d="M87.43,42.24a10.09,10.09,0,0,1-13.77-3.41l-.28-.45h0a17.55,17.55,0,0,0-22.86-4.32l.26.46a10.1,10.1,0,0,1,13.77,3.41l.27.45h0A17.55,17.55,0,0,0,87.69,42.7Z"/><ellipse class="cls-1" cx="61.17" cy="22.58" rx="2.72" ry="2.71"/><path class="cls-1" d="M45.32,45.47H27.19V44.8h4.27L27,32.58H11.73L7.27,44.8H13.6v.67H0V44.8H6.6L22.86.29h1.4L40.52,44.8h4.8ZM26.79,31.91l-3.46-9.43A6.7,6.7,0,0,0,17,18.16L12,31.91Z"/><path class="cls-1" d="M126.11,1h-6.47v28.7a15.86,15.86,0,0,1-31.72,0V1H83.38V.29h18.13V1H97V38a6.81,6.81,0,0,0,6.8,6.77A15.15,15.15,0,0,0,119,29.65V1h-6.46V.29h13.6Z"/><path class="cls-1" d="M160,45.47H141.84V44.8h4.26l-4.46-12.22H126.37L121.91,44.8h6.33v.67h-13.6V44.8h6.6L137.51.29h1.39L155.17,44.8H160ZM141.44,31.91,138,22.48a6.69,6.69,0,0,0-6.33-4.32l-5,13.75Z"/><path class="cls-1" d="M200.69,45.47H182.56V44.8h4.2l-8.2-13.55-.06-.07a7,7,0,0,0-5-2V44.8H178v.67H159.9V44.8h4.53V1H159.9V.29h22.66a13.54,13.54,0,0,1,2.6,26.84L195.82,44.8h4.87ZM173.5,1V26.73h9.06a4.49,4.49,0,0,0,4.53-4.52V5.47A4.53,4.53,0,0,0,182.56,1Z"/><path class="cls-1" d="M249.88,13.84A13.59,13.59,0,0,1,236.29,27.4h-9.07V44.8h4.53v.67H213.56V44.8h4.53V1h-4.53V.29h22.73A13.58,13.58,0,0,1,249.88,13.84Zm-9.06-8.37A4.58,4.58,0,0,0,236.29,1h-9.07V26.73h9.07a4.53,4.53,0,0,0,4.53-4.52Z"/><path class="cls-1" d="M282.81,45.47H264.68V44.8H269l-4.47-12.22H249.22L244.76,44.8h6.33v.67h-13.6V44.8h6.6L260.35.29h1.4L278,44.8h4.8ZM264.28,31.91l-3.46-9.43a6.7,6.7,0,0,0-6.33-4.32l-5,13.75Z"/><path class="cls-1" d="M328,.29V1h-6.66l-16.2,44.52h-1.47l-8.33-22.86L287,45.47h-1.41L269.28,1h-4.79V.29h18.19V1h-4.33l8.13,22.33a6.82,6.82,0,0,0,6.33,4.31L302.54,1h-6.26V.29h13.59V1h-6.66l-3.34,9.24,4.74,13.09a6.82,6.82,0,0,0,6.33,4.31L320.67,1H314.4V.29H328Z"/><path class="cls-1" d="M61.17,44.49a13.59,13.59,0,0,1-13.6-13.55v0h0s0,0,0,0V14.22a13.6,13.6,0,0,1,27.2,0V30.85s0,0,0,0h0v0a13.45,13.45,0,0,1-1.37,5.84c.16.18.33.35.48.53H74l.31.51.28.46a8.6,8.6,0,0,0,1.23,1.53,22.55,22.55,0,0,0,8-17.22h0v0h0a22.63,22.63,0,0,0-45.25,0h0v0h0A22.57,22.57,0,0,0,69.27,43.65a15.57,15.57,0,0,1-1.44-.95A13.56,13.56,0,0,1,61.17,44.49Z"/><ellipse class="cls-1" cx="234.02" cy="13.84" rx="2.72" ry="2.71"/><text class="cls-2" transform="translate(130.82 73.74)">H<tspan class="cls-3" x="14.14" y="0">O</tspan><tspan x="29.24" y="0">TEL</tspan></text></g></g></svg>